<?xml version="1.0" encoding="UTF-8" standalone="no"?>
<svg
   xmlns:dc="http://purl.org/dc/elements/1.1/"
   xmlns:cc="http://creativecommons.org/ns#"
   xmlns:rdf="http://www.w3.org/1999/02/22-rdf-syntax-ns#"
   xmlns:svg="http://www.w3.org/2000/svg"
   xmlns="http://www.w3.org/2000/svg"
   xmlns:xlink="http://www.w3.org/1999/xlink"
   id="svg8"
   version="1.1"
   viewBox="0 0 211.66666 211.66667"
   height="230"
   width="230">
  <defs
     id="defs2" />
  <metadata
     id="metadata5">
    <rdf:RDF>
      <cc:Work
         rdf:about="">
        <dc:format>image/svg+xml</dc:format>
        <dc:type
           rdf:resource="http://purl.org/dc/dcmitype/StillImage" />
        <dc:title></dc:title>
      </cc:Work>
    </rdf:RDF>
  </metadata>
  <g
     style="display:none"
     id="layer2">
    <image
       id="image843"
       xlink:href="file:///C:/Users/RIOTGEAR/Desktop/download.jpg"
       preserveAspectRatio="none"
       height="192.93428"
       width="257.608"
       x="-23.100382"
       y="9.0661001"
       style="display:inline" />
  </g>
  <g
     style="display:inline"
     id="layer1">
    <path
       id="catcolour"
       d="M 55.817831,69.016865 72.658117,62.180712 87.497577,37.337123 84.329602,35.002825 65.655225,29.33382 c 0,0 -9.337187,0.33347 -9.670658,1.167147 -0.33347,0.83368 -2.50103,10.671074 -2.50103,11.504751 0,0.833677 -1.834092,21.508879 -1.834092,21.508879 z m 72.696679,-24.176645 5.33553,-3.834915 29.01198,-10.170866 2.00082,1.667356 1.66736,12.17169 -4.6686,30.679331 -3.83492,5.502271 -13.83903,-14.839458 z M 104.17112,34.669357 75.15915,61.680506 58.318866,82.855913 l -1.83409,22.175827 20.675199,20.17499 29.512175,18.67437 16.50683,-12.67189 16.00659,-7.66984 10.00413,-10.33759 2.83451,-27.678098 -5.33553,-11.17128 -21.34215,-21.508877 -16.34007,-11.50475 -3.16799,-7.002891 z"
       style="fill:#f4e3d7;stroke:none;stroke-width:0.330119px;stroke-linecap:butt;stroke-linejoin:miter;stroke-opacity:1" />
    <g
       id="hood">
      <path
         id="hoodcolor"
         style="fill:#502d16;stroke:none;stroke-width:0.330119px;stroke-linecap:butt;stroke-linejoin:miter;stroke-opacity:1"
         d="m 118.1768,6.4913714 -11.0042,2.6673916 -24.343728,11.171189 -14.095838,7.122069 1.752468,1.240526 14.973366,8.72431 -0.707307,3.065208 -4.716453,3.891154 -5.777089,6.837728 -1.650598,5.42376 -0.471322,4.479822 -6.83837,0.943293 -4.008502,2.122563 -4.8338,3.536533 -3.696436,-30.225269 -2.610007,1.679612 -4.168402,6.169106 -6.836437,16.67361 1.167022,15.506586 9.670823,20.675018 -2.501042,1.50037 -1.500366,5.502419 -3.334721,3.50173 -2.668034,-1.16703 -4.168407,7.00278 21.342355,23.50941 12.671554,2.50104 24.34373,13.83923 23.343061,2.00071 4.0014,-7.66948 12.50521,-1.66736 21.17535,-7.33679 14.00558,-16.6736 3.33472,-0.66669 -5.50178,-7.00279 -8.50379,-0.83368 -4.00141,-2.00069 2.40161,-5.93521 2.43347,-13.406456 11.50455,-18.841305 -3.33474,-8.169808 -2.0007,-10.171161 0.47648,-8.924185 -1.08255,8.840363 -3.3012,14.501402 0.23534,3.655169 -3.65453,6.602388 -0.35397,-3.773161 -3.41918,-2.711233 -1.7686,-3.891154 -4.47983,-3.065212 -2.00457,-2.121918 0.70731,-4.951792 -5.18714,-6.36705 -7.30967,-5.77709 -5.54176,-3.183203 2.24056,-3.183203 16.26998,-6.484398 17.26486,-7.115622 -0.0915,-0.89493 -15.33959,6.835793 -12.50526,-5.335426 -13.50588,-10.33751 -5.00209,-9.170485 z m -12.83855,28.3444926 4.50175,7.837112 14.8399,10.337511 12.67154,11.671528 9.50384,10.67085 5.00209,10.837846 -2.33406,17.173949 -0.16698,10.00417 -10.50452,10.50385 -15.33957,7.50313 -21.34172,17.17394 L 80.327832,128.37443 70.824003,122.53867 57.65211,109.53377 51.483003,98.528928 50.716981,91.926306 55.752425,81.855316 71.24897,67.9687 l 9.046248,-9.15581 7.935058,-6.900281 9.405139,-11.406588 z" />
      <path
         style="fill:#28170b;stroke:none;stroke-width:0.330119px;stroke-linecap:butt;stroke-linejoin:miter;stroke-opacity:1"
         d="m 49.853038,97.192146 7.899286,12.733184 -6.956089,-9.19619 h -3.419093 c 0,0 -0.589497,2.0043 -0.471598,2.5938 0.117895,0.58949 2.947494,5.89499 3.301194,6.36659 0.3537,0.47159 10.139381,21.10406 10.139381,21.10406 l -9.078285,-13.91218 -4.480189,-7.30979 -2.004296,-2.00428 c 0,0 -1.178999,0.3537 -1.178999,1.179 0,0.82528 2.475896,4.59808 2.475896,4.59808 0,0 3.183295,13.32268 3.890691,14.38376 0.707399,1.06111 10.846783,6.13079 10.846783,6.13079 l 17.567068,7.07401 c 0,0 -18.392366,-5.06971 -18.863967,-5.06971 -0.4716,0 -2.475896,-0.1179 -1.886396,0.5895 0.589497,0.7074 1.061096,1.53269 1.061096,1.53269 h -1.886394 l -9.549883,-9.90357 -11.789981,-13.79428 4.362294,-6.83818 2.829595,1.06111 2.947495,-2.5938 1.414795,-5.895 2.947495,-1.532705 z m 21.811464,33.011944 24.051557,21.45775 c 0.589504,0.11792 1.179003,0.82531 1.179003,0.82531 l -2.358,1.5327 22.636748,2.7117 5.06971,-8.0172 10.96467,-1.53269 c -1.06109,0 -5.42338,-0.70739 -5.42338,-0.70739 l 5.54129,-6.13079 c 0.35369,-0.5895 4.83388,-7.1919 4.83388,-7.1919 0.47161,-1.0611 4.1265,-10.96469 4.1265,-10.96469 l -7.19189,11.79 -13.55848,14.38377 -4.5981,7.78139 -21.104051,-6.48448 z m 94.555638,-14.73746 3.06539,5.42338 c -0.4716,0.47159 -2.82959,1.88638 -2.82959,1.88638 l -10.61098,0.70741 -8.01719,3.65489 7.66348,-2.47589 7.78139,-0.1179 0.4716,2.00429 -7.89928,12.49738 12.96897,-15.68068 3.65489,-1.06108 -5.42338,-7.07399 z M 83.996131,36.169974 86.663899,37.83733 c 1.000412,0.500206 6.169213,1.667355 6.169213,1.667355 l -5.168801,2.000827 c -1.500618,0.833677 -8.670244,9.170451 -8.670244,9.170451 l -5.002065,9.503923 -1.834091,1.000413 2.167561,-10.504336 10.170866,-10.004129 0.833678,-3.167974 z m 74.030549,44.351643 3.83492,9.003719 9.00372,-15.67314 -3.50145,-7.669832 -1.50062,-7.00289 -1.83409,4.168386 -3.16797,11.004542 z m -55.59033,67.839043 22.40097,-16.03438 14.85536,-8.96039 -17.44916,8.4888 z m 48.45681,-64.137491 4.3623,4.833891 -4.4802,11.90788 -1.5327,11.78998 v -10.61098 l 2.35799,-16.388075 z m -44.13764,-50.720962 1.50062,3.918284 c 0.16674,0.416839 2.66777,4.418491 2.66777,4.418491 0.5002,0.333471 15.08956,10.587704 15.08956,10.587704 L 137.10139,64.181538 124.26274,52.843525 109.33992,42.25582 105.25491,34.669357 Z m 10.0646,-24.7349086 -3.4191,6.0128906 -1.88639,6.012888 c -0.2358,0.825298 -1.76849,6.130789 -1.76849,6.130789 0,0.4716 -0.82531,4.362293 -0.82531,4.362293 l 1.88639,-6.956088 2.0043,-5.069691 c 0.70741,-1.061098 2.0043,-2.593796 2.0043,-2.593796 0.47161,-0.235799 2.94749,-0.471599 2.94749,-0.471599 l 4.5981,2.829595 14.14799,9.903583 -12.85108,-10.728881 c -0.47161,-0.2358 -5.54129,-8.9603848 -5.54129,-8.9603848 l -0.35372,-2.3579963 z m -2.8296,16.2701726 c 0.2358,0.471599 2.59379,4.126492 2.59379,4.126492 0.94322,0.943199 6.13079,6.484489 6.13079,6.484489 2.24011,1.650597 5.3055,3.772793 5.3055,3.772793 -0.4716,-0.117895 -6.36658,-4.008592 -6.36658,-4.008592 l -6.48451,-6.13079 -2.24008,-5.305492 z M 101.72894,24.80167 c -1.06109,0.7074 -4.24438,3.183295 -4.24438,3.183295 -1.532701,1.296898 -10.021486,5.894989 -10.021486,5.894989 l 5.89499,-3.654893 4.951798,-4.833891 c 0.471591,-0.235799 7.899278,-5.187591 7.899278,-5.187591 z m -52.5833,69.442984 c -0.235799,-0.825303 -2.004296,-7.78139 -2.004296,-7.78139 -0.235799,-1.886396 -0.707399,-8.135086 -0.707399,-8.135086 0,-2.122197 0.117894,-6.012889 0.117894,-6.012889 0.117895,-1.532698 -0.943198,-3.536995 -0.943198,-3.536995 -0.471599,-1.414796 -1.414797,-6.012889 -1.414797,-6.012889 l -0.2358,-2.240096 -0.117895,3.772794 c 0.117895,0.943198 1.061099,6.366589 1.061099,6.366589 0,0.589498 0.707399,10.846781 0.707399,10.846781 0.235799,1.061098 1.768496,7.899286 1.768496,7.899286 z"
         id="hoodshadow" />
    </g>
    <g
       id="catshadows">
      <path
         style="fill:#ac9d93;fill-opacity:1;stroke:none;stroke-width:0.330119px;stroke-linecap:butt;stroke-linejoin:miter;stroke-opacity:1"
         d="m 82.62918,36.002149 2.357996,2.004297 -1.296897,1.061101 0.235801,2.475895 -1.178997,-3.419097 -1.886399,-1.061096 c 0,0 2.240098,5.06969 1.414799,4.362291 -0.825299,-0.707397 -3.065397,-3.183293 -3.065397,-3.183293 l 0.471599,3.065393 -2.593793,-2.711692 -0.353701,1.061096 -2.475896,-2.240095 -3.654894,-3.772793 c 0,0 -0.707396,0.471599 -0.235797,1.178995 0.471599,0.707399 1.768495,3.536996 1.768495,3.536996 l -3.065392,-3.536996 c 0,0 -2.475896,-1.061096 -3.301195,-1.061096 -0.825299,0 -6.13079,-0.117895 -6.13079,-0.117895 l -2.122196,0.235797 1.532695,0.471598 -1.886394,1.4148 c 0,0 -0.117908,1.414797 0.707396,1.532695 0.825298,0.117908 8.135087,2.711697 8.842487,3.065397 0.707399,0.353699 3.772792,2.947494 3.772792,2.947494 0,0 -1.0611,3.065394 -1.0611,3.772794 0,0.7074 -0.235796,3.065395 0.235802,4.362293 0.471598,1.296898 2.711697,7.191887 2.711697,7.191887 l 0.117894,3.065397 -1.414799,-4.008595 -4.951791,-1.886397 -1.178995,-0.707398 c 0,0 0.471598,2.122196 0.589497,2.829592 0.117894,0.707401 0.3537,2.829597 0.3537,2.829597 l -2.122192,-0.707401 -1.886399,-1.4148 0.943199,2.004298 -3.772794,-0.589498 c 0,0 -0.117894,1.532695 0.3537,2.122196 0.471599,0.589498 1.532699,2.711693 1.532699,2.711693 L 56.691228,63.7086 c 0,0 -0.471602,2.240099 -0.471602,2.829596 0,0.589502 0.117906,1.886399 0.117906,1.886399 l -3.183295,-1.886399 c 0,0 -1.532698,-0.825298 -2.122195,-0.825298 -0.589501,0 -3.301195,-0.471598 -3.301195,-0.471598 l 3.536992,-1.061097 -5.187588,-3.065396 2.475895,-1.768497 -2.357997,-0.471599 2.240097,-1.178997 -1.650596,-0.707401 3.419093,-1.768495 3.301195,-3.183296 -1.061101,-20.632465 2.711697,-12.851075 12.02578,8.135086 z m 57.0635,8.842487 3.0654,-0.707399 -0.7074,1.650597 2.9475,-1.414798 2.24009,-0.707398 3.8907,-0.825298 -2.24011,-0.707398 3.0654,-0.471601 c 1.4148,0 4.83389,0.235799 4.83389,0.235799 l -2.35799,-1.414796 2.94749,-0.943198 -3.6549,-0.9432 2.12221,-2.004296 2.47589,-0.589499 -1.6506,-1.414797 2.5938,-1.178998 3.4191,-0.825298 -0.5895,1.532696 1.53269,-0.2358 0.4716,2.711696 c 0,0.4716 0.1179,2.004296 0.1179,2.004296 -0.4716,0.4716 -1.7685,1.296899 -1.7685,1.296899 l 1.2969,0.117894 0.5895,1.532698 -0.9432,0.825299 c -0.9432,0.943197 -2.1222,2.475896 -2.1222,2.475896 l 1.0611,2.357995 -2.0043,0.353699 -4.95179,2.475896 2.1222,0.589499 -1.7685,1.061098 c -0.58949,0.235801 -4.1265,1.061098 -4.1265,1.061098 l -3.77278,-0.117894 3.06539,0.589499 -2.0043,0.825298 c -0.58949,0 -2.71168,0.117894 -2.71168,0.117894 l 2.59378,0.2358 3.6549,-0.471599 2.47589,-0.471599 -2.59379,1.178999 1.88639,2.004295 c -0.23579,0.707399 -1.41479,2.711697 -1.41479,2.711697 l -3.537,3.419093 c -0.70739,0.707399 -2.94749,2.593796 -2.94749,2.593796 l 2.47589,-0.4716 -0.82529,1.532697 2.12219,-0.471598 2.94749,-0.943198 1.53271,-0.4716 -2.1222,1.532697 c -0.4716,0.353699 -2.5938,1.414798 -2.5938,1.414798 l 2.0043,-0.2358 c 0.8253,-0.235799 2.7117,-0.825299 2.7117,-0.825299 l -1.4148,1.768497 -1.7685,1.414799 2.24009,-0.7074 3.0654,-1.532697 -1.0611,1.768498 2.358,-1.0611 -1.2969,1.414799 -2.00429,3.065395 2.71169,-1.532699 -0.4716,2.004297 1.4148,-0.471598 0.82529,2.122195 4.716,-11.082581 1.8864,-13.912175 0.7074,-6.24869 -2.0043,-14.383775 -10.25729,3.183295 -14.85537,10.139383 z M 83.66266,84.273165 c -0.416839,0 -3.084606,-1.417252 -3.084606,-1.417252 -0.416839,-0.500207 -2.250929,-3.251341 -2.250929,-3.251341 l 0.166735,0.500206 0.333471,1.667354 v 0.917047 c -0.333471,0.166734 -0.750309,0.416837 -0.750309,0.416837 l 1.000412,0.250104 c 0.583574,0.250103 2.334298,1.083781 2.334298,1.083781 0.500205,0.08337 2.084193,0.250103 2.084193,0.250103 l 1.417252,-0.08337 z m -4.835329,-11.83822 -1.667356,1.167149 -1.83409,0.416838 -1.08378,-0.08337 2.167561,0.833677 0.166736,0.917046 c -0.250102,0.33347 -1.000413,0.917045 -1.000413,0.917045 l 2.000825,-0.666942 1.333884,-1.167149 0.75031,-1.167148 1.167149,-2.167562 z m 13.922414,-8.670246 1.500619,2.584401 c 0.333471,0.500205 1.834091,2.417664 1.834091,2.417664 l 1.750721,3.251342 0.333471,1.417251 0.833673,-1.583987 c 0.416842,-0.666942 0.583585,-2.834503 0.583585,-2.834503 l 0.833675,2.167561 c 0.33346,0.500207 2.25092,1.583988 2.25092,1.583988 0.41685,0.250102 1.33389,0.833678 1.33389,0.833678 l 0.16673,-4.168388 c -0.16673,-1.083781 -0.75031,-3.167975 -0.75031,-3.167975 l 1.08378,0.666942 c 0.0833,-0.666942 0.41684,-1.83409 0.41684,-1.83409 0.41685,-0.583574 1.25052,-2.250929 1.25052,-2.250929 v 1.917459 l 0.5002,2.16756 c 0,0.583574 -0.5002,4.585226 -0.5002,4.585226 l -1.08378,3.334711 c -0.0833,0.416839 -0.0833,2.250929 -0.0833,2.250929 0.41683,0 2.25093,-2.084193 2.25093,-2.084193 0.0833,-0.333472 0.41683,-2.751137 0.41683,-2.751137 v 2.334298 c 0.16674,0.750309 1.16716,1.667354 1.16716,1.667354 0.5002,0.166736 1.0004,-0.08337 1.0004,-0.08337 l -0.7503,1.667354 c 0.16673,0.333471 0.41683,1.167149 0.41683,1.167149 l -1.00041,-0.75031 0.25011,1.417252 c 0.33347,0.750309 3.25134,2.250929 3.25134,2.250929 l 1.00041,1.583987 1.41725,-0.33347 -1.00041,1.333884 c 0,0.750309 0.41684,3.918284 0.41684,3.918284 0.91705,0.500206 2.91787,0.666941 2.91787,0.666941 0.83368,-0.33347 3.41807,-1.917458 3.41807,-1.917458 l -0.16674,0.917045 c 0.33348,0.08337 2.91788,0.666943 2.91788,0.666943 1.08379,0.08337 2.25093,0.08337 2.25093,0.08337 0.58356,0 2.66777,-0.250103 2.66777,-0.250103 l -0.83369,0.833678 -2.08418,1.250511 1.33389,1.50063 2.08418,0.666943 h 1.66736 c -0.41684,0.0833 -2.25094,0.666932 -2.25094,0.666932 l 0.50022,1.417252 c 0.2501,0.416843 1.08378,0.917042 1.08378,0.917042 0.50021,0.166744 0.75031,0.166744 0.75031,0.166744 l -0.91704,0.250099 0.5002,0.917043 1.91746,2.167561 -2.58441,-0.917042 -0.83367,1.667359 -0.91705,2.08419 -0.16674,1.25052 0.41684,1.08379 -1.2505,-0.41685 -0.58358,1.16716 v 1.25052 -1.66737 l 1.16714,-2.8345 0.50021,-4.335128 c 0,-0.416833 -2.00082,-3.251337 -2.00082,-3.251337 l -3.00125,-1.50063 -1.83408,-0.416832 -2.50104,0.333477 -1.66735,0.250099 -2.00083,0.333477 c -0.33348,0.166722 -1.91746,0.0833 -1.91746,0.0833 l 0.50021,1.000409 2.08419,0.583577 1.83409,0.750298 -2.00082,0.166744 1.41724,0.583576 c 0.58358,0.166733 2.25094,0.416833 2.25094,0.416833 l 1.58399,0.08341 c -0.33348,0 -3.41808,0.416821 -3.41808,0.416821 -0.33347,0 -2.50103,-0.333466 -2.50103,-0.333466 l -0.50021,1.167153 0.16674,1.250519 c 0.2501,0.41684 1.58399,1.58399 1.58399,1.58399 l 1.08377,1.33388 -2.16756,-0.58358 -0.33348,0.83368 v 1.58399 l 1.50063,1.33389 c -0.33346,0 -1.33388,-0.2501 -1.33388,-0.2501 l 0.83367,1.25052 c 0.2501,0.41683 1.58399,1.41724 1.58399,1.41724 l -2.75117,-0.16673 c -0.50022,-0.0834 -2.33431,-1.16717 -2.33431,-1.16717 l -1.00042,-2.00082 -2.08418,-2.25093 -2.16756,-1.50063 -2.25093,-1.167141 0.0833,-2.000829 2.83452,-1.417241 2.91786,-2.501038 0.83368,-0.583566 0.58358,-1.917462 -2.08419,-1.917462 -8.83698,-0.250106 -2.250937,1.834091 v 0.583577 l 3.501437,3.918279 1.66737,2.667772 0.0833,2.334296 -2.08421,1.41725 c -0.33347,0.0833 -3.334695,1.00041 -3.334695,1.00041 l -1.834092,0.91704 -1.000413,1.00043 1.000413,-2.08419 1.167149,-1.33389 -1.000415,-0.91705 -1.167147,-0.50021 -1.08378,-0.250101 0.833676,-1.167142 -0.08337,-0.833687 -2.417664,-2.084184 H 90.91555 c -0.500207,0 -3.918284,0.333466 -3.918284,0.333466 l 0.917046,-1.00042 1.83409,-0.583565 c 0.416839,-0.0833 4.168386,-0.166744 4.168386,-0.166744 l -0.33347,-1.000398 c -0.500207,-0.0833 -2.334297,-0.583587 -2.334297,-0.583587 l 1.667355,-0.666943 1.333885,-1.500619 c 0.166734,-0.500199 -0.666943,-1.583984 -0.666943,-1.583984 -0.333471,0 -2.834503,0.416839 -2.834503,0.416839 l -1.16712,-0.500214 h 0.917044 l 1.834091,-1.083781 c 0.500207,-0.166734 1.50062,-0.750309 1.50062,-0.750309 0.166736,-0.500205 0.416839,-2.250928 0.416839,-2.250928 l -0.250103,-1.083782 -0.500207,-0.833677 0.75031,-0.250103 0.250103,-1.250516 -0.250103,-1.583988 1.083781,1.250516 h 1.167144 l 0.250113,-1.417251 0.666931,0.500206 0.917056,-1.83409 c 0,-0.416838 -1.083785,-3.084606 -1.083785,-3.084606 l -0.666951,-1.750722 -1.500619,-1.583988 -1.750724,-0.917045 v 1.000413 l -0.917044,-1.333883 c -0.33347,-0.416839 -2.000825,-1.667356 -2.000825,-1.667356 l -2.084194,-0.833677 1.583987,0.08337 0.166736,-1.16715 -0.166736,-1.250517 0.917045,1.083781 c 0.333472,0.166736 2.667768,1.167149 2.667768,1.167149 L 93.416602,66.76589 92.74966,63.76465 Z m 37.515485,19.25795 0.83367,-2.667768 v -2.250929 c -0.33346,-1.000413 -1.00041,-3.167975 -1.00041,-3.167975 l 1.66737,1.834091 c 0.83366,0.416838 2.91786,1.333884 2.91786,1.333884 0.50021,0.08337 2.16756,0.416839 2.16756,0.416839 l -1.25051,1.167148 -2.41767,1.250516 -0.16673,0.917046 c 0.41683,0.166735 1.0004,0.416839 1.0004,0.416839 l -1.25052,0.33347 -1.25051,1.000413 c -0.41684,0.500207 -1.58399,1.667354 -1.58399,1.667354 l -0.91704,0.250105 0.83368,-0.583575 c 0.2501,-0.333472 0.41684,-1.917458 0.41684,-1.917458 z m -50.687589,3.834916 2.584399,0.75031 c 1.000414,0.08337 3.084607,-0.166737 3.084607,-0.166737 l 2.417664,-0.500205 -1.417251,0.833677 c -0.500205,0.33347 -2.250929,1.417251 -2.250929,1.417251 -0.416838,0.250105 -1.08378,0.666941 -1.08378,0.666941 -0.917045,0.416843 -2.084194,0.583576 -2.084194,0.583576 l 1.917458,0.583565 1.50062,-0.0833 -0.416839,1.583996 -2.000826,0.416832 c -0.583574,0 -2.501033,-0.166722 -2.501033,-0.166722 l 0.75031,0.666943 c 0.583574,0.0833 1.750723,0.333455 1.750723,0.333455 l -1.750723,1.333886 c -0.333471,0.166744 -1.333883,0.833687 -1.333883,0.833687 l 1.250515,0.333476 -1.083781,1.083765 0.583575,4.668609 1.667355,1.75071 c 0.416839,0.16674 2.751136,1.25052 2.751136,1.25052 0.500206,0.16675 2.000825,0.58358 2.000825,0.58358 0.666943,0.16674 2.334298,0.25011 2.334298,0.25011 0.416838,0 1.834091,-0.0833 1.834091,-0.0833 l 2.501032,-0.66695 -0.166737,0.58357 c -0.250102,0.41684 -1.750722,1.584 -1.750722,1.584 -1.083781,0.83366 -2.250929,2.25092 -2.250929,2.25092 l 0.750309,-1.58398 c 0.166736,-0.33348 0.166736,-1.50062 0.166736,-1.50062 -0.33347,0 -2.000826,-0.0833 -2.000826,-0.0833 l -0.917044,0.16672 c -0.666942,0.75032 -0.750311,2.0842 -0.750311,2.0842 -0.166735,0.66694 -0.917045,2.08419 -0.917045,2.08419 l 0.583575,-2.66777 0.33347,-1.83409 c -0.33347,-0.16673 -2.167561,-0.66694 -2.167561,-0.66694 -0.416839,0.16675 -1.667355,1.00041 -1.667355,1.00041 l -2.834503,2.83451 2.084192,-3.16798 0.08337,-1.08378 -1.667356,1.41725 c -0.416839,0.33348 -1.667355,1.25052 -1.667355,1.25052 l 1.000413,-1.58399 c 0.416839,-0.50019 1.083781,-1.16714 1.083781,-1.16714 l -0.833678,-1.08379 -2.250928,1.00042 -2.000826,2.00082 0.500206,-1.83409 c 0.250101,-1.0004 -1.000416,-0.7503 -1.000416,-0.7503 l -5.085432,1.16715 c 0.583575,0 4.08502,-2.00083 4.08502,-2.00083 0.500206,-0.16673 3.001239,-1.25052 3.001239,-1.25052 l 2.417664,-1.50061 c -0.416839,0.0833 -4.585225,1.50061 -4.585225,1.50061 -0.333472,0.2501 -5.085434,2.58441 -5.085434,2.58441 l 2.917872,-1.91747 c 0.333471,-0.16673 3.501445,-2.25092 3.501445,-2.25092 l 1.583988,-0.83368 -1.250517,-0.583576 c -0.666942,0.583576 -3.167974,1.500626 -3.167974,1.500626 -0.416839,0.16673 -2.917872,1.50061 -2.917872,1.50061 l 0.666942,-0.83366 0.75031,-0.83369 2.417664,-1.00042 c 0.583576,-0.2501 2.167562,-0.833676 2.167562,-0.833676 l -1.834091,-1.500608 -1.917457,-0.333477 2.584401,-0.917042 2.917869,-1.917462 -0.583574,-1.167153 c -0.416839,-0.0833 -1.08378,-0.750298 -1.08378,-0.750298 l 1.500619,0.0833 2.501033,-1.167152 -1.667355,-2.084196 1.750723,0.75031 c 0.500205,-0.08341 1.250516,-0.500207 1.250516,-0.500207 l -0.666942,-1.667405 -2.25093,-1.083781 z m 16.548498,17.965755 0.833679,0.75031 c 0.375157,0.2501 1.250515,0.58358 1.250515,0.58358 l 0.666943,0.12504 c 0.166729,0 1.542304,-0.12504 1.542304,-0.12504 h 0.79199 l -0.45853,0.58357 -0.29178,0.66695 0.75031,-0.66695 c 0.41683,-0.0416 1.04209,-0.20841 1.04209,-0.20841 l 0.87536,-0.12506 c 0.25011,0 1.00041,0.33347 1.00041,0.33347 l 0.25012,-0.25011 c 0.2501,0 1.16714,0.20842 1.16714,0.20842 0.20842,0 0.83368,-0.33347 0.83368,-0.33347 l 0.20842,-0.45851 1.12546,0.58356 c 0.2501,0.0416 1.29221,0.0834 1.29221,0.0834 l 0.79199,0.41682 c 0.33346,0 0.87536,-0.12503 0.87536,-0.12503 l 0.0833,0.54188 c 0.0833,0.20841 0.41683,0.91704 0.41683,0.91704 L 110.507,108.033 c -0.2501,-0.0417 -1.45894,-0.33347 -1.45894,-0.33347 l -0.70858,-0.45857 c 0.12506,0.20842 0.91704,1.5423 0.91704,1.5423 0.12506,0.20841 0.33348,0.62525 0.33348,0.62525 l -0.79199,-0.91704 -1.29221,-1.16715 c -0.20842,0 -0.58356,0.0417 -0.58356,0.0417 -0.12506,0.29178 -0.16674,1.0421 -0.16674,1.0421 0.0417,0.16674 0.37516,1.83408 0.37516,1.83408 l -0.50023,-0.37516 -0.50019,1.54232 v -1.41725 l -0.12505,-1.45894 -0.87536,-1.08379 c -0.33348,-0.0833 -1.08378,-0.0833 -1.08378,-0.0833 l -0.83369,0.83368 c -0.0417,0.20843 -0.25009,1.50063 -0.25009,1.50063 l -0.41685,-0.75032 c 0,-0.2501 0.12506,-1.37557 0.12506,-1.37557 l -1.12548,-0.2501 -1.12545,1.08379 c -0.12506,0.20841 -0.791998,1.2922 -0.791998,1.2922 -0.125043,0.33346 -0.458515,1.12546 -0.458515,1.12546 l 0.04167,-1.37557 -1.083786,0.45852 1.500616,-1.62568 c 0.125051,-0.45851 0.291795,-1.08376 0.291795,-1.08376 -0.375154,-0.16674 -1.417253,0.16672 -1.417253,0.16672 l -1.042101,1.08379 -1.792403,1.16714 0.458523,-1.16714 c 0.375151,-0.29178 1.542308,-1.45894 1.542308,-1.45894 0.04167,-0.20841 -0.04167,-0.75031 -0.04167,-0.75031 -0.166742,0 -1.20883,0.0833 -1.20883,0.0833 -0.500213,0.37514 -1.66736,1.04209 -1.66736,1.04209 l 0.958729,-1.20883 c 0.125052,-0.16673 0,-0.91705 0,-0.91705 l -0.833678,0.0833 z m -2.792821,-57.482067 -0.833676,4.001652 v 2.834503 c 0,0.666943 0.666942,3.33471 0.666942,3.33471 l -1.667355,-1.83409 -2.667768,-2.000825 v 2.000825 l 0.833678,2.334297 0.833676,1.667354 -2.834504,-1.83409 1.667356,2.334297 -3.668181,-0.833677 1.000413,1.667354 1.50062,1.000414 H 83.66266 l -2.334297,-0.333471 0.666942,1.167148 -1.83409,-0.166735 -0.500207,1.83409 -1.667355,0.166735 -3.001239,3.33471 -2.167562,1.333883 -2.667766,1.16715 1.000413,2.334297 -2.667768,1.333884 1.000413,3.834915 -1.50062,0.333473 -4.668593,0.500205 3.501445,3.668181 -4.335123,-0.166736 0.833678,1.333885 H 61.48684 c -0.500207,1.000413 0,2.000825 0,2.000825 0.833677,0.500208 2.167561,2.167561 2.167561,2.167561 l 1.834091,0.833678 -2.834503,2.167566 -0.500207,2.501028 3.33471,1.834084 -3.001239,2.334306 2.501033,1.333885 3.167973,5.835736 -1.167147,1.83411 5.168799,0.5002 h 1.000413 c -1.167147,1.33388 -4.501858,6.00247 -4.501858,6.00247 l 4.001652,-0.66694 c 1.000412,0 3.501445,2.50102 3.501445,2.50102 l 3.668182,4.33513 5.335535,0.33346 3.167973,5.66902 5.835743,2.16756 3.334709,0.83368 2.501025,3.50144 c 0.50021,0.66694 2.50103,3.00124 2.50103,3.00124 l 0.83369,-1.83409 c 0.33346,-1.00041 0.66694,-2.3343 0.66694,-2.3343 l 0.5002,3.66819 c -0.16673,0.83368 0,2.50102 0,2.50102 l 6.16922,-2.8345 c 1.66736,-0.5002 8.67024,-2.83451 8.67024,-2.83451 l 4.66859,-0.5002 -2.00083,1.66737 -19.50805,16.00659 -23.009487,-20.34173 -10.837807,-7.33636 -11.004543,-11.338 -6.002478,-10.50435 -1.500618,-7.002883 5.502271,-9.670661 21.675614,-20.508466 3.236024,-3.101157 8.101989,-7.13591 9.670664,-11.271811 7.270161,-5.068882 4.1028,7.469996 17.30553,12.771816 4.33513,4.335122 -5.16881,-2.334297 c -0.66694,0 -3.3347,0.166736 -3.3347,0.166736 -1.16715,0.833677 -2.33429,1.333884 -2.33429,1.333884 l 0.16672,-2.834503 -1.50061,-3.501445 c -0.33348,-0.666943 -0.66695,-1.667356 -0.66695,-1.667356 l -2.50103,2.501032 -0.33347,-3.167974 c -0.66694,-1.167148 -2.8345,-3.501445 -2.8345,-3.501445 l -1.50062,1.50062 -3.33471,-0.166736 -2.33431,2.834503 -1.0004,2.000826 -1.33388,-3.501446 c -0.50021,-0.666941 -5.669004,-5.669006 -5.669004,-5.669006 l -0.833685,5.335536 z m 48.166572,23.034616 3.27979,5.329653 c 0.20498,0.819947 0.20498,2.45984 0.20498,2.45984 -0.20498,1.434907 -2.04986,5.739627 -2.04986,5.739627 l 2.45984,-1.434907 -1.22992,2.459841 2.45984,1.229919 0.40997,2.45984 c -0.40997,1.229921 -0.81994,2.049867 -0.81994,2.049867 l -5.73964,2.869814 h 3.89476 l 2.25485,5.534639 -3.27978,0.61496 1.63988,2.049868 0.61497,4.5097 -2.66483,-1.02493 0.81994,3.27979 c 0,1.84489 -0.81994,5.73963 -0.81994,5.73963 l -5.94461,-1.02493 h -1.84489 l 2.66483,4.50971 c 0,0.81994 -1.02493,2.04986 -1.02493,2.04986 l -2.25485,-2.66483 v 3.27979 c -0.20499,0.81994 -3.27979,6.76456 -3.27979,6.76456 l 8.60944,-3.89474 9.2244,-9.4294 0.61496,-11.68424 c 0,-1.02493 2.25486,-16.398931 2.25486,-16.398931 l -5.32966,-10.864294 -6.55957,-6.969546 z"
         id="shadow2" />
      <path
         style="fill:#483e37;stroke:none;stroke-width:0.330119px;stroke-linecap:butt;stroke-linejoin:miter;stroke-opacity:1"
         d="m 81.921783,93.655155 c -0.5895,0.471597 -2.122195,1.178997 -2.947495,1.41479 -0.825298,0.235804 -1.886396,0.707401 -1.886396,0.707401 h 0.825297 l -1.0611,0.471607 -1.768496,0.471586 0.7074,0.235804 -0.7074,1.296899 1.178999,1.41479 1.886398,0.943218 -1.650596,1.29689 -1.178999,1.0611 2.004297,-0.2358 0.353699,1.29689 2.004297,-1.06109 c 0,0 0.471599,1.29689 0.943198,1.41481 0.471599,0.1179 2.357996,0.70739 2.357996,0.70739 l 1.414798,0.35369 1.768497,0.47161 c 0,0 -4.126493,-1.88641 -4.715992,-2.1222 -0.5895,-0.2358 -1.886396,-3.53701 -1.886396,-3.53701 0,0 -0.589499,-1.532692 -0.589499,-2.004278 0,-0.471607 0.353699,-2.240103 0.353699,-2.240103 z m 43.033427,1.178997 1.76849,2.711689 c 0.1179,0.471608 0.23581,3.536989 0.23581,3.536989 l -0.3537,1.88641 -0.5895,1.29689 1.41479,-2.24008 0.5895,-2.122215 0.94321,-1.296888 h 0.94319 l -1.179,-0.707411 -1.2969,-1.768496 c -0.3537,-0.707389 -0.7074,-1.532692 -0.7074,-1.532692 l 0.1179,-0.707389 -2.35799,-0.353717 c -0.47159,-0.117901 -2.35799,-0.82528 -2.35799,-0.82528 z m -10.25728,13.322688 c 0.47158,0 2.71169,0.5895 2.71169,0.5895 0.94319,0.23578 2.35799,0.70739 2.35799,0.70739 v -0.8253 l 1.179,-0.8253 1.17899,-0.3537 -0.70738,-0.35369 -2.358,1.29688 z"
         id="path861" />
    </g>
    <path
       transform="scale(0.26458333)"
       d="M 448.41406 26.279297 L 404.74414 34.746094 L 318.74414 72.177734 L 265.26953 102.48047 L 274.62891 107.38086 L 269.72461 102.92578 L 319.63281 74.40625 L 404.74414 36.529297 L 445.74023 27.617188 L 447.07617 35.416016 L 467.57422 70.173828 C 467.57422 70.173828 515.25465 108.49521 517.03711 109.83203 L 559.5918 127.43359 L 496.09375 156.17383 L 486.29102 170.21094 L 507.67969 182.01953 L 535.08398 202.29492 L 556.47266 227.69531 L 552.9082 246.63281 L 560.25977 254.20898 L 575.41016 265.12695 L 584.32227 279.83008 L 598.13672 292.08398 L 598.36133 305.89844 L 617.51953 280.94336 L 614.40039 271.80859 L 618.85742 255.76758 L 629.32812 239.2793 L 624.42773 235.9375 L 629.55273 227.02539 L 633.11523 251.5332 L 646.25586 280.66211 L 600.88281 353.76172 L 592.68945 401.65625 L 583.23633 426.23242 L 598.99219 435.68555 L 629.86914 436.31641 L 649.40625 461.52344 L 631.13281 467.19336 L 587.01953 466.5625 L 633.65234 469.71484 L 654.44922 462.7832 L 633.02148 435.05469 L 600.25195 432.53516 L 586.38867 423.71289 L 594.58008 403.54688 C 594.58008 403.54688 602.77292 359.4341 604.0332 356.2832 L 629.86914 312.79883 L 647.51562 281.92188 C 647.51562 281.92188 636.17376 256.71331 634.2832 251.67188 L 631.76172 238.43945 L 629.77539 223.45898 L 629.67188 223.6543 L 627.97852 215.75195 C 627.97852 215.75195 632.39132 196.84691 633.02148 194.32617 L 633.02148 180.46094 L 633.02148 169.74805 C 633.02148 169.74805 629.24023 153.36253 629.24023 150.8418 L 629.24023 126.89844 C 629.24023 126.89844 629.86914 113.66314 629.86914 107.36133 L 634.91211 95.388672 C 634.91211 95.388672 618.52787 102.94922 615.37695 102.94922 L 587.01953 110.51172 L 563.70117 126.89844 L 559.65234 128.78125 L 561.59766 126.98828 L 517.92773 109.16406 L 468.91016 69.949219 L 448.41211 35.191406 L 448.41406 26.279297 z M 201.97852 60.097656 L 205.12891 65.138672 L 200.7168 86.564453 L 191.89453 119.33398 C 192.52472 123.11507 191.89453 153.36523 191.89453 153.36523 L 193.78516 177.31055 L 197.56641 198.10547 L 187.48438 205.03906 L 176.77148 205.66797 L 190.00391 209.44922 L 183.70117 214.49219 L 195.67773 218.90234 C 201.34937 222.05325 222.77344 235.28906 222.77344 235.28906 L 214.58203 218.27148 L 227.81445 222.05469 L 228.44531 214.49219 L 237.89844 217.01172 C 240.41917 218.90226 247.35156 225.20508 247.35156 225.20508 L 244.83008 211.3418 C 242.30936 208.19089 232.22656 198.10547 232.22656 198.10547 C 227.18511 193.06402 222.77344 186.13477 222.77344 186.13477 L 235.37695 194.32617 L 226.55469 182.98242 L 219.62305 176.68164 L 239.1582 188.02539 C 241.67892 189.91595 251.13086 199.36523 251.13086 199.36523 L 244.83008 188.02539 L 237.89844 179.83203 C 236.00791 176.68113 227.81445 169.74805 227.81445 169.74805 C 223.40319 166.59713 213.32031 159.03516 213.32031 159.03516 L 222.77344 158.40625 L 212.69141 148.32227 L 208.28125 135.71875 L 213.95117 129.41797 L 213.32031 117.44531 C 212.05995 113.66423 208.28125 103.57812 208.28125 103.57812 L 212.69141 86.564453 C 213.32159 84.043727 213.32032 75.220703 213.32031 75.220703 L 227.18359 87.824219 C 234.74578 90.975128 247.98047 101.68945 247.98047 101.68945 C 251.76156 103.58 262.47461 111.14258 262.47461 111.14258 L 249.87109 104.8418 C 246.72018 104.21161 263.10547 116.18164 263.10547 116.18164 L 273.1875 127.52539 L 286.42188 147.0625 L 280.75 131.30859 L 271.29688 115.55273 L 290.20312 124.375 L 304.69727 131.9375 L 316.60547 138.20508 L 321.86328 142.58398 L 319.1875 151.94141 L 304.48242 164.86523 L 280.86719 192.04492 L 274.18164 214.32617 L 271.50781 229.47656 L 248.33594 233.48828 L 235.41406 240.17188 L 230.95898 243.73438 L 215.80859 254.87695 L 212.24414 262.45117 L 217.58984 255.76758 L 228.72852 249.08398 L 237.64258 241.50781 L 250.56445 235.71484 L 274.62891 231.70312 L 276.85547 212.98828 L 283.53906 192.9375 L 302.70117 171.10352 L 320.52539 155.50586 L 327.20898 143.0293 L 316.55273 138.14648 L 286.42188 114.29297 L 261.84375 101.05859 C 258.69285 97.907685 242.31055 82.785156 242.31055 82.785156 C 239.15964 80.264434 222.14453 67.658203 222.14453 67.658203 C 219.62382 66.397844 201.97852 60.097656 201.97852 60.097656 z M 621.67969 113.03125 L 622.93945 126.26562 C 622.93945 126.26562 624.19797 143.2815 624.82812 148.95312 C 624.82812 148.95312 627.34961 165.3367 627.34961 167.85742 C 627.34961 167.85742 622.93945 194.95721 622.93945 198.73828 L 621.67969 215.75195 L 615.37891 236.54883 C 615.37891 236.54883 610.96484 251.67263 610.96484 254.19336 L 599.62305 272.46875 L 604.66211 272.46875 L 599.62305 283.8125 C 599.62305 283.8125 603.40443 285.07227 607.18555 285.07227 L 599.48242 302.84961 L 599.0293 303.44727 C 599.0293 303.44727 599.47235 292.53017 599.25 291.19336 L 584.76758 279.38477 L 576.74805 264.67969 L 561.59766 254.20898 C 561.59766 254.20898 554.68986 247.29955 554.02148 246.18555 C 554.02148 246.18555 555.35904 240.3936 555.80469 238.83398 L 557.58789 227.02539 L 549.56641 219.22656 L 535.30664 202.29492 L 522.60742 192.49219 L 507.90039 180.46094 C 507.90039 180.46094 499.43676 176.6726 497.6543 175.55859 L 488.83789 170.92773 L 513.91797 155.25586 L 505.72461 176.05078 L 531.5625 167.22852 C 531.5625 167.22852 551.7268 160.92569 557.39844 159.03516 C 557.39844 159.03516 580.71822 153.36455 583.86914 152.73438 C 583.86914 152.73438 554.87877 151.47461 551.09766 151.47461 L 562.44141 147.0625 L 551.72852 145.17188 L 565.5918 143.28125 C 565.5918 143.28125 574.41632 140.76029 581.97852 137.60938 L 593.32227 136.34961 L 581.34766 132.56836 L 571.26562 131.30859 L 584.49805 127.52539 L 603.40234 123.11523 L 598.99219 121.22461 L 621.67969 113.03125 z M 404.74414 126.0957 C 404.74414 126.0957 377.11734 145.70157 370.87891 151.04883 C 364.64042 156.39609 344.14337 179.56972 337.01367 189.37305 C 329.88399 199.17636 301.36309 221.45605 298.68945 225.91211 C 296.01582 230.36817 255.91211 266.9082 255.91211 266.9082 C 255.91211 266.9082 214.02383 305.23008 210.45898 308.79492 C 206.89414 312.35976 190.8541 342.66193 189.96289 348.90039 C 189.07168 355.1389 193.52734 372.96094 193.52734 372.96094 C 193.52734 372.96094 215.80606 408.61034 216.69727 413.06641 C 217.58849 417.52243 253.40677 450.80899 267.49805 462.08203 C 283.09424 474.55897 300.76193 483.49692 305.82031 488.82031 C 309.94988 493.1662 383.80237 561.89648 387.36719 561.89648 C 390.93208 561.89648 458.21803 506.19743 465.34766 499.95898 C 469.42743 496.38922 528.62109 467.43164 528.62109 467.43164 C 528.62109 467.43164 564.27027 435.34646 566.05273 428.2168 C 567.83508 421.0871 566.94531 389.00391 566.94531 389.00391 L 575.85547 323.94531 L 557.14062 283.8418 L 518.81836 241.95312 C 518.81836 241.95312 482.28024 208.97949 477.82422 204.52344 C 473.36812 200.06738 414.54688 159.07227 414.54688 159.07227 L 402.40625 135.65234 L 401.83594 137.55469 L 414.16016 161.32422 C 414.16016 161.32422 472.26235 201.81709 476.66406 206.21875 C 481.06566 210.62035 517.1582 243.19336 517.1582 243.19336 L 555.01367 284.57031 L 573.5 324.18359 L 564.69727 388.44727 C 564.69727 388.44727 565.57706 420.14097 563.81641 427.18359 C 562.05575 434.22625 526.84375 465.91797 526.84375 465.91797 C 526.84375 465.91797 468.36785 494.5246 464.33789 498.05078 C 457.29527 504.21304 390.83182 559.23047 387.31055 559.23047 C 383.7892 559.23047 310.84087 491.33775 306.76172 487.04492 C 301.76509 481.7865 284.31204 472.95939 268.90625 460.63477 C 254.98701 449.49937 219.60885 416.61851 218.72852 412.2168 C 217.8482 407.81516 195.83789 372.60352 195.83789 372.60352 C 195.83789 372.60352 191.43608 354.99628 192.31641 348.83398 C 193.19675 342.67165 209.04313 312.74007 212.56445 309.21875 C 216.08577 305.69743 257.46289 267.84375 257.46289 267.84375 C 257.46289 267.84375 297.07775 231.74931 299.71875 227.34766 C 302.35975 222.946 330.52767 200.93755 337.57031 191.25391 C 344.61296 181.57027 364.8631 158.68043 371.02539 153.39844 C 376.94994 148.32024 401.84762 130.61927 403.80273 129.23047 L 404.74414 126.0957 z M 191.58008 148.00781 L 172.35742 172.26953 L 149.67383 232.45117 L 152.82422 292.32031 L 191.26367 372.66602 L 154.71484 292.63477 L 151.24805 232.76562 L 174.88086 172.89844 L 191.58008 148.00781 z M 380.23633 338.20312 L 376.00391 341.76953 L 380.9043 338.65039 L 396.5 339.76367 C 396.5 339.76367 411.87217 339.54106 413.20898 339.76367 C 413.20898 339.76367 419.66963 344.66688 420.11523 346.22656 L 419.00195 352.46484 L 414.99414 355.35938 L 410.76172 350.23438 L 406.30273 349.3457 L 401.625 352.46484 L 403.18359 356.47266 L 410.53711 358.47852 L 405.41211 363.82617 L 398.06055 367.39062 L 394.49414 367.16992 L 393.82617 363.60352 L 393.60547 354.24609 C 393.60547 354.24609 392.71289 361.37583 392.71289 363.1582 L 391.375 366.94531 L 387.58789 364.04883 C 387.58789 364.04883 385.35996 359.59311 384.46875 357.58789 C 384.46875 357.58789 385.13635 354.69216 385.58203 353.57812 C 385.58203 353.57812 388.25582 350.01443 388.0332 348.90039 L 384.91406 348.67578 C 384.91406 348.67578 380.23529 350.23438 378.89844 350.23438 L 373.99805 346.66992 L 372.4375 345.11133 L 374.44336 342.66211 L 370.87891 344.44336 L 370.87891 347.78711 L 373.77344 350.68164 L 379.34375 356.25195 L 385.36133 364.27148 C 385.36133 364.27148 390.70655 368.95218 391.375 370.28906 L 390.70703 379.64648 L 380.01172 384.77148 C 380.01172 384.77148 369.09631 387.66753 368.20508 388.33594 L 362.41016 393.9043 L 368.42773 390.11719 L 381.79492 385.2168 L 391.59961 382.09766 L 400.95703 383.21094 L 410.53711 388.7793 L 417.44336 395.91016 L 421.00781 401.48047 L 418.78125 395.91016 C 418.78125 395.91016 413.65713 390.78618 412.32031 389.22656 C 412.32031 389.22656 403.85233 382.98666 402.73828 382.54102 C 402.73828 382.54102 394.93945 379.20003 394.93945 378.08594 L 394.93945 372.29492 L 397.61328 368.2832 L 405.41211 365.16406 L 410.53711 360.26367 L 419.67188 353.13281 L 421.67578 345.78125 L 413.65625 338.87109 L 394.04883 338.20508 L 380.23633 338.20312 z M 187.28906 372.51562 L 177.93164 376.97266 L 172.58203 400.58789 L 165.45508 407.71875 L 161.44336 409.5 L 155.20508 404.1543 L 150.30469 406.82812 L 134.70898 432.67383 L 162.78125 470.99609 L 216.69727 522.68555 L 263.04102 532.93555 L 356.61719 584.17773 L 446.18555 593.98242 L 463.11719 563.68164 L 505.89844 557.88867 L 588.7793 530.26172 L 631.55664 475.45117 L 586.10547 528.92383 L 502.33203 555.6582 L 463.11719 560.11523 L 490.74414 535.60742 C 493.41778 532.93382 515.69922 505.30664 515.69922 505.30664 C 517.03608 502.1874 535.75195 466.98438 535.75195 466.98438 L 510.79883 507.08789 L 459.55273 560.5625 L 444.40234 590.86328 L 361.9668 566.35352 L 269.72461 491.04688 L 361.07422 568.13672 L 430.14453 589.52734 L 356.17383 581.50391 L 265.26953 529.81641 L 217.14453 520.01172 L 193.97461 497.28516 L 217.58984 507.53516 C 220.26348 507.53516 272.39844 524.4668 272.39844 524.4668 L 216.25195 503.52344 L 188.625 489.71094 L 180.60547 459.85352 L 174.36719 431.78125 C 172.58477 428.21636 163.66992 413.51172 163.66992 413.51172 L 171.24805 432.22656 L 183.72461 488.37305 L 138.27148 432.22656 L 152.08594 408.61133 L 161.88867 411.73047 L 173.91992 401.92578 L 186.84375 420.64258 C 188.62618 424.20739 220.26367 477.67773 220.26367 477.67773 L 191.29883 422.86914 C 190.85324 421.08668 175.70117 399.25391 175.70117 399.25391 L 179.26758 380.0918 L 187.28906 375.63477 L 192.63672 375.18945 L 187.28906 372.51562 z "
       style="fill:#000000;stroke:none;stroke-width:1.24769px;stroke-linecap:butt;stroke-linejoin:miter;stroke-opacity:1"
       id="outline" />
    <g
       id="textbg">
      <path
         id="bg"
         style="fill:#000000;fill-opacity:0.775811;stroke:none;stroke-width:0.510338"
         d="m 11.135611,131.80513 h 14.19426 v 2.12074 l 161.665279,-0.16314 0.16314,-1.9576 h 13.848 v 13.30601 l -2.93641,0.16314 v 45.51424 l 2.93641,0.32628 v 13.13188 h -13.52174 v -2.28386 H 25.166738 l -0.326268,2.28386 H 11.135611 v -13.78443 l 3.099537,-0.16314 v -44.37229 l -3.099537,-0.16315 z" />
      <path
         id="textframe"
         style="fill:#999999;stroke:none;stroke-width:0.322987px;stroke-linecap:butt;stroke-linejoin:miter;stroke-opacity:1"
         d="m 13.269547,133.67934 v 9.80508 l -0.05741,0.23089 2.191523,0.0574 v -1.5569 h -0.576584 v -6.80609 h 6.863492 v 3.5762 h 1.614939 v -5.30658 z m 175.810733,0 v 5.30658 h 1.61493 v -3.57619 h 6.8635 v 6.80608 h -0.5766 v 1.5569 l 2.19153,-0.0574 -0.0574,-0.23089 v -9.80508 z m -165.342648,2.33598 -0.02838,1.70137 c 54.995151,0.4862 109.972108,0.1725 164.967288,0 l -0.0285,-1.70137 c -54.9702,0.0841 -109.940326,0.0383 -164.910517,0 z m -2.797126,0.029 -2.249559,0.0574 6.47e-4,5.99862 h 1.556887 l 0.0574,-4.4985 h 0.634621 z m 170.504774,0 v 1.55753 h 0.63461 l 0.0574,4.49849 h 1.55692 l 6.4e-4,-5.99862 z m -173.158068,3.25889 -2.450795,0.0285 -0.09651,20.6504 -0.07696,-0.002 0.03848,8.29109 -0.03848,8.29106 0.07696,-0.002 0.09651,20.64979 2.450795,0.029 v -1.64384 l -1.153168,-0.029 -0.08831,-27.29499 0.08831,-27.29562 1.153168,-0.029 z m 175.811368,0 v 1.64206 l 1.15316,0.029 0.0884,27.29564 -0.0884,27.29499 -1.15316,0.029 v 1.64395 l 2.45078,-0.029 0.0966,-20.64977 0.077,0.002 -0.0385,-8.29107 0.0385,-8.29106 -0.077,0.002 -0.0966,-20.65041 z m -164.795086,0.14383 -8.30495,0.058 v 1.96064 h 5.536844 c 0,0 -1.326824,2.24984 -2.365004,3.40337 -1.038179,1.15352 -3.97931,2.71068 -3.97931,2.71068 l 0.114811,-3.05702 h -1.72975 l -0.115446,5.65229 c 0,0 4.787227,-2.24957 6.978933,-4.26824 2.191695,-2.01868 3.863869,-6.45975 3.863869,-6.45975 z m 153.778796,0 c 0,0 1.67217,4.44106 3.86386,6.45975 2.19171,2.01866 6.97895,4.26824 6.97895,4.26824 l -0.11549,-5.65229 h -1.72975 l 0.11475,3.05703 c 0,0 -2.94113,-1.55717 -3.97931,-2.71069 -1.03818,-1.15353 -2.36501,-3.40337 -2.36501,-3.40337 h 5.53685 v -1.96063 z m -161.017003,2.42241 v 0.63463 l -4.412065,-0.029 v 1.41307 l 6.056023,-0.0574 -0.05803,-1.96126 z m 166.669293,0 -0.058,1.96126 6.05602,0.0574 v -1.41307 l -4.41206,0.029 v -0.63463 z m -170.273888,44.49726 0.115446,5.65227 h 1.729751 l -0.114811,-3.0564 c 0,0 2.941131,1.55719 3.979311,2.71071 1.038179,1.15352 2.365003,3.40274 2.365003,3.40274 h -5.536844 v 1.96124 l 8.304951,0.0574 c 0,0 -1.672174,-4.44108 -3.863869,-6.45976 -2.191707,-2.01866 -6.978933,-4.2682 -6.978933,-4.2682 z m 175.464408,0 c 0,0 -4.78724,2.24954 -6.97895,4.26821 -2.19169,2.01869 -3.86386,6.45976 -3.86386,6.45976 l 8.30495,-0.0574 v -1.96126 h -5.53685 c 0,0 1.32683,-2.2492 2.365,-3.40274 1.03819,-1.15352 3.97931,-2.7107 3.97931,-2.7107 l -0.11474,3.05639 h 1.72975 z m -176.271878,6.28686 v 1.41307 l 4.412065,-0.029 v 0.63462 h 1.58592 l 0.05804,-1.96126 z m 177.079328,0 -6.05601,0.0574 0.058,1.96126 h 1.58592 v -0.63462 l 4.41206,0.029 z m -179.328886,0.11549 -2.191523,0.0574 0.05741,0.23089 v 9.80508 h 10.035964 v -5.30597 h -1.614939 v 3.57559 h -6.863492 v -6.80546 h 0.576584 z m 181.578446,0 v 1.55753 h 0.5766 v 6.80545 h -6.8635 v -3.57558 h -1.61493 v 5.30596 h 10.03596 v -9.80508 l 0.0574,-0.23089 z m -178.290533,1.67297 -6.45e-4,5.99798 2.24956,0.0581 v -1.55754 h -0.634606 l -0.0574,-4.49848 z m 173.445713,0 -0.0574,4.49847 h -0.63461 v 1.55755 l 2.24956,-0.0581 -6.4e-4,-5.99798 z m -168.428045,4.38305 0.02838,1.70135 c 54.970187,-0.0832 109.940325,-0.0378 164.910515,0 l 0.0285,-1.70135 c -54.99516,-0.48502 -109.972127,-0.17208 -164.967297,0 z" />
    </g>
    <text
       id="text"
       y="160.73993"
       x="52.129089"
       style="font-style:normal;font-variant:normal;font-weight:normal;font-stretch:normal;font-size:16.7153px;line-height:1.25;font-family:'Accidental Presidency';-inkscape-font-specification:'Accidental Presidency, Normal';font-variant-ligatures:normal;font-variant-caps:normal;font-variant-numeric:normal;font-variant-east-asian:normal;fill:#b3b3b3;fill-opacity:1;stroke:none;stroke-width:0.417884"
       xml:space="preserve"><tspan
         style="font-style:normal;font-variant:normal;font-weight:normal;font-stretch:normal;font-size:16.7153px;font-family:'Accidental Presidency';-inkscape-font-specification:'Accidental Presidency, Normal';font-variant-ligatures:normal;font-variant-caps:normal;font-variant-numeric:normal;font-variant-east-asian:normal;fill:#b3b3b3;stroke-width:0.417884"
         y="160.73993"
         x="52.129089"
         id="tspan920">   khajit has wares, </tspan><tspan
         id="tspan924"
         style="font-style:normal;font-variant:normal;font-weight:normal;font-stretch:normal;font-size:16.7153px;font-family:'Accidental Presidency';-inkscape-font-specification:'Accidental Presidency, Normal';font-variant-ligatures:normal;font-variant-caps:normal;font-variant-numeric:normal;font-variant-east-asian:normal;fill:#b3b3b3;stroke-width:0.417884"
         y="181.63405"
         x="52.129089">   if you have coin.</tspan></text>
    <g
       id="openeyes">
      <path
         style="fill:#ffffff;stroke:none;stroke-width:0.264583px;stroke-linecap:butt;stroke-linejoin:miter;stroke-opacity:1"
         d="m 95.438988,80.886905 -1.039434,-5.24442 -3.260045,-4.299479 -4.535715,-0.944941 -5.480656,1.700892 -1.795386,1.6064 -0.330729,3.63802 1.748139,3.921504 2.69308,2.126115 4.393975,0.94494 3.732514,-0.94494 2.504094,-1.889882 z m 18.520832,1.086681 1.32292,-4.819196 1.84263,-2.315104 3.30729,-1.511905 2.55134,-0.47247 2.83482,0.519717 3.26005,2.645833 1.41741,3.685268 -1.13393,4.015997 -2.92931,2.504093 -5.24442,0.425223 -5.10268,-2.315104 z"
         id="eyewhite" />
      <circle
         style="fill:#00ccff;stroke-width:1.78796"
         id="leftiris"
         cx="86.534264"
         cy="77.420685"
         r="6.6798611" />
      <circle
         r="4.7899804"
         cy="77.60968"
         cx="86.534264"
         id="leftpupil"
         style="fill:#000000;stroke-width:1.2821" />
      <path
         id="eyeoutline"
         style="fill:#000000;stroke:none;stroke-width:0.385524px;stroke-linecap:butt;stroke-linejoin:miter;stroke-opacity:1"
         d="m 86.090351,70.044304 -4.991944,1.870686 -2.005044,1.648478 -0.27492,3.786849 c 0,0 1.170302,3.304199 1.583367,3.92379 0.413059,0.619596 2.753836,2.271696 2.753836,2.271696 l 4.680852,0.963766 3.923792,-0.894519 c 0,0 2.134299,-1.859317 2.409672,-1.859317 0.275373,0 2.065507,0.551386 2.065507,0.551386 l -2.271697,-1.170987 -2.271697,1.996776 -3.786849,0.894519 -4.199225,-0.825788 -2.960026,-2.271697 -1.652612,-3.717602 0.481624,-3.44165 1.996776,-1.308965 4.928383,-1.497581 4.296378,1.015957 3.305225,3.580143 0.89452,4.129982 0.06924,1.308963 1.445389,0.894519 c -0.344217,-0.206534 -1.514522,-5.78317 -1.583364,-6.058546 -0.06884,-0.27537 -3.13476,-4.770313 -3.410127,-5.045686 -0.275381,-0.275375 -5.427057,-0.745172 -5.42706,-0.745172 z m 6.050278,0.640786 2.872176,4.624525 0.194818,0.827339 -0.341064,-2.288233 z m 30.617251,0.98702 -3.22719,0.06925 -2.67839,1.166852 -0.89194,1.30483 0.82372,-0.824238 2.40348,-1.166855 3.2954,-0.137459 3.15898,1.098643 -2.7466,-0.618051 -3.15898,0.618051 -2.81482,1.510501 -1.57923,2.266011 -1.30483,3.4339 -0.75551,1.922362 -0.34313,0.481107 0.68626,0.06822 2.40347,1.030428 -1.64796,-2.06034 0.20568,-1.304313 0.9617,-3.15898 1.64796,-2.335257 2.40295,-1.166855 3.22823,-0.892453 2.7466,0.686263 3.29592,2.609144 1.44177,3.4339 -1.09864,3.845758 -2.95227,2.403472 -5.08186,0.48059 -5.49321,-2.267046 5.42499,2.610178 5.49321,-0.412379 3.08973,-2.678388 1.37356,-3.982185 -1.99109,-3.777031 -2.81533,-2.815849 z" />
      <circle
         r="6.7743554"
         cy="79.88147"
         cx="122.48202"
         id="rightiris"
         style="fill:#00ccff;stroke-width:1.81325" />
      <circle
         style="fill:#000000;stroke-width:1.2821"
         id="rightpupil"
         cx="122.48202"
         cy="79.88147"
         r="4.7899804" />
      <path
         id="eyehighlight"
         style="fill:#ffffff;stroke-width:0.580075"
         d="m 84.007792,73.252377 a 1.1656281,1.1656281 0 0 0 -1.156004,1.165817 1.1656281,1.1656281 0 0 0 1.165823,1.165823 1.1656281,1.1656281 0 0 0 1.165302,-1.165823 1.1656281,1.1656281 0 0 0 -1.165302,-1.165817 1.1656281,1.1656281 0 0 0 -0.0098,0 z m 35.947678,2.272212 a 1.1656281,1.1656281 0 0 0 -1.156,1.165302 1.1656281,1.1656281 0 0 0 1.16582,1.16582 1.1656281,1.1656281 0 0 0 1.16582,-1.16582 1.1656281,1.1656281 0 0 0 -1.16582,-1.165302 1.1656281,1.1656281 0 0 0 -0.01,0 z m -31.06529,1.259869 a 2.1671765,2.1671765 0 0 0 -2.137336,2.167311 2.1671765,2.1671765 0 0 0 2.166792,2.166792 2.1671765,2.1671765 0 0 0 2.167308,-2.166792 2.1671765,2.1671765 0 0 0 -2.167308,-2.167311 2.1671765,2.1671765 0 0 0 -0.02946,0 z m 35.94819,2.271697 a 2.1671765,2.1671765 0 0 0 -2.13785,2.16731 2.1671765,2.1671765 0 0 0 2.16679,2.166792 2.1671765,2.1671765 0 0 0 2.16731,-2.166792 2.1671765,2.1671765 0 0 0 -2.16731,-2.16731 2.1671765,2.1671765 0 0 0 -0.0289,0 z" />
    
     <animate attributeName="opacity" values="10;10;10;10;10;10;10;10;10;10;10;10;10;10;10;0;1" dur="5" repeatCount="indefinite"/>
     </g>
    <path
       id="closedeyes"
       d="m 79.091516,73.563614 c 0,0 -0.566965,1.086683 -0.708704,1.27567 -0.14174,0.188989 -0.944941,0.755954 -1.133928,0.803201 -0.188989,0.04725 -1.13393,0.236233 -1.13393,0.236233 0,0 0.661458,0.0945 0.850448,0.0945 0.188986,0 1.27567,-0.0945 1.27567,-0.0945 h 0.330729 l -0.236236,0.661458 -0.944941,1.133931 h 0.283483 c 0,0 0.566965,0.425222 0.803198,0.472469 0.236236,0.04725 0.519718,0.188989 0.519718,0.188989 0,0 0.09449,0.330729 0.09449,0.755951 0,0.425223 -0.04725,0.803201 -0.04725,1.133931 0,0.330729 -0.188989,0.614209 -0.188989,0.614209 h 0.472471 l 0.614212,0.377978 1.039434,1.133927 2.126115,1.228424 4.630208,1.039434 4.016,-0.897694 2.50409,-1.795386 2.126118,0.14174 -2.4096,-0.803198 -2.362351,1.889879 -3.590774,0.803201 -4.204986,-0.708705 -3.071056,-2.4096 -1.606399,-3.638021 0.377976,-3.212796 z m 33.923364,9.071431 1.46466,-0.425223 1.22842,1.133928 2.78758,1.937128 3.07105,1.039435 4.63021,-0.330729 2.92932,-2.504093 1.27567,-3.685268 -0.18899,-1.937128 1.08668,0.944941 c 0.37798,0.188988 1.98437,0.566964 1.98437,0.566964 l -0.94494,0.236235 c -0.18898,0.04725 -1.18117,0.141741 -1.18117,0.141741 l 0.0473,0.519718 c 0.33072,0.377976 0.75595,0.755952 0.75595,0.755952 0.18899,0.09449 -0.51972,0 -0.51972,0 l -0.75595,0.566964 -0.0945,0.614212 c 0.0473,0.188988 0.37798,0.992187 0.37798,0.992187 l -0.80325,0.141741 c -0.18899,0.141741 -0.7087,0.47247 -0.7087,0.47247 l -0.85045,1.370164 -1.18118,0.377976 -0.61421,0.614212 -5.62239,0.614211 -3.92151,-1.937128 -2.83482,-1.937128 z"
       style="fill:#000000;stroke:none;stroke-width:0.264583px;stroke-linecap:butt;stroke-linejoin:miter;stroke-opacity:1" />
  </g>
</svg>
